<?xml version="1.0" encoding="utf-8"?>
<!-- Generator: Adobe Illustrator 20.0.0, SVG Export Plug-In . SVG Version: 6.00 Build 0)  -->
<svg version="1.1" id="Layer_1" xmlns="http://www.w3.org/2000/svg" xmlns:xlink="http://www.w3.org/1999/xlink" x="0px" y="0px"
	 viewBox="0 0 170 50" width="170" height="50" style="enable-background:new 0 0 170 50;" xml:space="preserve">
<style type="text/css">
	.st0{fill:#4391FF;}
</style>
<g>
	<g>
		<path class="st0" d="M74.5,43.3l-0.7-2.4h-0.3c-0.5,0.9-1.3,1.5-2.3,2c-1,0.5-2.2,0.7-3.4,0.7c-2.2,0-3.9-0.6-5-1.8
			c-1.1-1.2-1.7-2.9-1.7-5.1V24.5h5.1v11c0,1.4,0.2,2.4,0.7,3c0.5,0.7,1.2,1,2.3,1c1.4,0,2.5-0.5,3.1-1.4c0.6-1,1-2.5,1-4.8v-8.8
			h5.1v18.8H74.5z"/>
		<path class="st0" d="M92.9,24.2c0.7,0,1.3,0.1,1.7,0.2l-0.4,4.8c-0.4-0.1-0.9-0.2-1.5-0.2c-1.6,0-2.9,0.4-3.8,1.3
			c-0.9,0.8-1.4,2-1.4,3.5v9.6h-5.1V24.5h3.9l0.8,3.2h0.3c0.6-1.1,1.4-1.9,2.4-2.5C90.6,24.5,91.7,24.2,92.9,24.2z"/>
		<path class="st0" d="M101.5,33.1l2.2-2.9l5.3-5.7h5.8l-7.5,8.1l7.9,10.6h-5.9l-5.4-7.6l-2.2,1.8v5.8h-5.1V17.2h5.1v11.7
			L101.5,33.1L101.5,33.1z"/>
		<path class="st0" d="M129.8,43.3l-0.7-2.4h-0.3c-0.5,0.9-1.3,1.5-2.3,2c-1,0.5-2.2,0.7-3.4,0.7c-2.2,0-3.9-0.6-5-1.8
			s-1.7-2.9-1.7-5.1V24.5h5.1v11c0,1.4,0.2,2.4,0.7,3c0.5,0.7,1.2,1,2.3,1c1.4,0,2.5-0.5,3.1-1.4s1-2.5,1-4.8v-8.8h5.1v18.8H129.8z"
			/>
		<path class="st0" d="M150.8,37.7c0,1.9-0.7,3.4-2,4.4c-1.3,1-3.3,1.5-6,1.5c-1.4,0-2.5-0.1-3.5-0.3s-1.9-0.5-2.7-0.8v-4.2
			c1,0.4,2,0.8,3.2,1.1c1.2,0.3,2.2,0.5,3.1,0.5c1.9,0,2.8-0.5,2.8-1.6c0-0.4-0.1-0.7-0.4-1c-0.2-0.3-0.7-0.5-1.3-0.9
			c-0.6-0.3-1.4-0.7-2.4-1.1c-1.4-0.6-2.5-1.2-3.2-1.7c-0.7-0.5-1.2-1.1-1.5-1.8c-0.3-0.7-0.5-1.5-0.5-2.5c0-1.7,0.6-3,1.9-3.9
			c1.3-0.9,3.1-1.4,5.5-1.4c2.3,0,4.5,0.5,6.6,1.5l-1.5,3.7c-0.9-0.4-1.8-0.7-2.6-1c-0.8-0.3-1.7-0.4-2.5-0.4
			c-1.5,0-2.3,0.4-2.3,1.2c0,0.5,0.2,0.9,0.7,1.2s1.6,0.8,3.2,1.5c1.5,0.6,2.5,1.1,3.2,1.7s1.2,1.1,1.5,1.8
			C150.6,36,150.8,36.8,150.8,37.7z"/>
	</g>
	<g>
		<path class="st0" d="M34.7,42.8l-1.4,0.5c-2.2,0.7-4.5-0.4-5.3-2.6l-8.7-25.9c-0.7-2.2,0.4-4.6,2.6-5.3l1.4-0.5
			c2.2-0.7,4.5,0.4,5.3,2.6l8.7,25.9C38.1,39.6,36.9,42,34.7,42.8z"/>
		<path class="st0" d="M49.5,42.8l-1.4,0.5c-2.2,0.7-4.5-0.4-5.3-2.6l-8.7-25.9c-0.7-2.2,0.4-4.6,2.6-5.3l1.4-0.5
			c2.2-0.7,4.5,0.4,5.3,2.6l8.7,25.9C52.9,39.6,51.7,42,49.5,42.8z"/>
		<ellipse class="st0" cx="54.7" cy="17" rx="5.4" ry="5.5"/>
	</g>
</g>
</svg>
